<svg version="1.1" id="Layer_1" xmlns="http://www.w3.org/2000/svg" xmlns:xlink="http://www.w3.org/1999/xlink" x="0px" y="0px"
	 width="100%" viewBox="0 0 274 247" enable-background="new 0 0 274 247" xml:space="preserve">
<path fill="#000000" opacity="1.000000" stroke="none" 
	d="
M165.000000,248.000000 
	C110.000008,248.000000 55.500011,248.000000 1.000015,248.000000 
	C1.000010,165.666687 1.000010,83.333366 1.000005,1.000037 
	C92.333305,1.000025 183.666611,1.000025 274.999939,1.000012 
	C274.999939,83.333298 274.999939,165.666595 274.999969,247.999939 
	C238.500000,248.000000 202.000000,248.000000 165.000000,248.000000 
M226.008591,43.996063 
	C226.008591,43.996063 226.068817,43.976749 225.891922,43.418655 
	C225.539566,43.339191 225.187210,43.259727 224.169693,43.048759 
	C223.491837,43.034248 222.813995,43.019733 221.738892,42.337749 
	C219.488464,41.854782 217.238052,41.371819 214.998764,40.967255 
	C214.998764,40.967255 215.077072,40.955437 214.908661,40.455639 
	C214.570801,40.626064 214.232941,40.796494 213.445740,41.033184 
	C213.445740,41.033184 213.014542,41.175858 212.085632,41.025154 
	C206.798813,41.025154 201.511978,41.025154 194.804352,41.025154 
	C197.242477,46.902195 199.845062,51.746712 201.206131,56.917992 
	C202.255585,60.905342 202.676208,65.526421 201.728806,69.469902 
	C199.965576,76.809227 193.474335,77.813957 186.581192,78.055176 
	C186.581192,78.055176 186.094254,77.988960 185.824203,77.325829 
	C179.550766,74.184738 176.879440,68.984306 177.820587,61.693142 
	C179.824112,56.033783 178.646973,50.559887 177.043854,45.039314 
	C176.092941,41.764656 174.783432,39.746223 170.806229,39.907974 
	C163.529388,40.203915 156.231140,39.933887 148.943924,40.042339 
	C147.276108,40.067154 145.616898,40.670406 144.019226,41.014423 
	C144.019226,41.014423 144.019562,40.948559 143.469177,41.132484 
	C143.386475,41.482788 143.303772,41.833088 143.044342,42.918995 
	C140.247711,48.123756 139.568848,53.308128 141.517151,59.178890 
	C143.996582,66.650131 139.358536,75.469009 132.871399,77.047813 
	C122.429131,79.589211 116.411995,74.735245 116.550377,62.949917 
	C117.027977,61.775330 117.558922,60.619244 117.973854,59.422916 
	C119.672050,54.526680 121.593483,49.683716 122.862541,44.676617 
	C123.275452,43.047478 124.665985,39.073044 119.079445,40.482281 
	C114.845673,40.661293 110.597214,41.154015 106.381073,40.956558 
	C96.409042,40.489525 88.550735,44.489002 81.395432,52.040058 
	C80.566559,53.688446 79.737679,55.336830 78.976707,56.984447 
	C78.976707,56.984447 78.966415,56.917324 78.286171,57.184727 
	C77.591751,59.186455 76.897339,61.188187 76.071991,63.477322 
	C76.071991,63.477322 76.045670,63.792053 75.344162,64.116776 
	C75.293449,65.113945 75.242737,66.111115 75.066063,67.710159 
	C75.032669,68.118523 74.999275,68.526894 74.241989,69.381874 
	C74.165070,71.523979 74.031441,73.665962 74.026863,75.808220 
	C74.022102,78.037651 74.141945,80.267342 74.240494,82.715973 
	C74.240494,82.715973 74.459297,82.750824 74.775208,83.190788 
	C75.205841,83.402016 75.636475,83.613243 76.803787,83.974976 
	C84.940063,86.992805 91.227242,91.813316 93.384521,100.761871 
	C95.492470,109.505821 93.321251,117.206268 87.640900,124.079231 
	C93.329315,125.412148 98.896332,126.373535 104.247650,128.031219 
	C124.990982,134.456985 134.164841,158.795914 127.084007,178.080566 
	C124.400238,185.389832 118.814270,190.273148 113.350891,195.980209 
	C112.869652,196.318787 112.388412,196.657364 111.382561,197.153366 
	C110.960320,197.491837 110.538078,197.830307 109.539932,198.066559 
	C109.330284,198.373367 109.120644,198.680176 108.981552,198.980896 
	C108.981552,198.980896 108.974182,198.910461 108.191467,198.991928 
	C104.828384,199.993652 101.524216,201.385284 98.088211,201.904465 
	C93.108429,202.656921 88.033356,202.778656 82.581917,203.031570 
	C82.581917,203.031570 82.143555,203.004425 81.764267,202.366318 
	C79.462608,201.646072 77.160942,200.925842 74.460739,200.049088 
	C74.460739,200.049088 74.038734,199.976730 73.776062,199.325104 
	C69.019791,195.638535 64.263512,191.951981 59.492676,188.254135 
	C54.545322,219.382050 59.104309,230.799286 80.038895,239.651596 
	C82.002296,240.052536 83.965698,240.453476 86.866348,240.993042 
	C106.159622,240.995438 125.452919,241.018311 144.746170,240.995453 
	C173.848892,240.960983 202.951569,240.894577 232.801804,241.018753 
	C233.661530,240.639847 234.521255,240.260925 236.126678,239.964066 
	C237.534073,239.574692 238.941452,239.185303 240.901855,238.415924 
	C242.629990,237.640198 244.358109,236.864487 246.808701,236.025192 
	C252.380081,232.214142 258.942078,229.186234 259.218079,220.234131 
	C260.140717,216.867813 261.756714,213.517258 261.833740,210.131699 
	C261.971039,204.096283 261.178223,198.039703 260.884766,191.126984 
	C259.866943,184.061905 258.849091,176.996811 257.992615,169.107300 
	C256.657684,160.289291 255.153564,151.492722 254.033585,142.647491 
	C252.824951,133.101959 252.121933,123.492699 250.932831,113.944313 
	C249.426010,101.844757 247.807755,89.754150 245.927917,77.708008 
	C244.959686,71.503456 244.078079,65.092354 241.724640,59.363098 
	C240.085083,55.371750 236.010529,52.380650 232.999527,48.994961 
	C232.999527,48.994961 233.051208,48.969673 232.816040,48.337261 
	C231.160110,47.291729 229.504196,46.246197 227.485962,45.061050 
	C227.485962,45.061050 227.102280,45.001442 226.934769,44.472603 
	C226.626007,44.292671 226.317245,44.112740 226.008591,43.996063 
M42.018478,112.996857 
	C42.018478,112.996857 42.069733,112.936966 41.847187,112.290405 
	C40.864429,111.921288 39.881668,111.552170 38.504166,111.052345 
	C38.504166,111.052345 38.092731,110.992104 37.905651,110.477814 
	C37.586720,110.392250 37.267792,110.306686 36.342800,110.077400 
	C35.928600,110.044228 35.514397,110.011055 34.918102,109.467239 
	C34.603409,109.378784 34.288715,109.290329 33.320980,109.065628 
	C32.880009,109.011742 32.439034,108.957855 31.738827,108.312912 
	C30.830160,108.519791 29.921494,108.726669 28.351542,109.039787 
	C27.909815,109.094162 27.468090,109.148529 26.256620,109.034912 
	C23.157919,110.683266 20.059216,112.331619 17.007862,113.993408 
	C17.007862,113.993408 16.991610,113.945946 16.497112,114.128387 
	C16.306803,114.415398 16.116495,114.702400 15.988352,115.007080 
	C15.988352,115.007080 15.973275,114.944283 15.336135,115.159592 
	C14.203434,116.762764 13.070733,118.365944 11.995026,120.000137 
	C11.995026,120.000137 11.981055,119.936882 11.440796,120.081337 
	C11.351258,120.407150 11.261721,120.732956 11.042369,121.456894 
	C11.042369,121.456894 10.987178,121.872002 10.293797,122.268776 
	C9.928803,125.184471 9.563808,128.100159 9.093194,131.791046 
	C9.396277,132.863037 9.713379,133.931290 10.000168,135.007629 
	C11.847875,141.942245 15.505483,147.203705 23.238213,149.769577 
	C30.056002,151.283096 36.616005,151.050568 42.818417,146.957458 
	C42.818417,146.957458 42.932217,146.566605 43.455418,146.062241 
	C47.067581,142.770966 50.639652,139.455170 50.970272,133.156219 
	C50.829319,128.538452 51.940639,123.645226 48.014538,119.178925 
	C46.679417,117.745094 45.344296,116.311256 43.887253,114.437317 
	C43.711159,114.157906 43.458546,114.004631 42.955986,113.445999 
	C42.642242,113.270103 42.328499,113.094208 42.018478,112.996857 
M109.956093,189.032394 
	C109.956093,189.032394 110.089638,189.173340 110.724670,189.031601 
	C111.507492,188.405350 112.290306,187.779114 113.145538,187.151001 
	C113.145538,187.151001 113.149277,187.078659 113.774971,186.821594 
	C117.861404,182.625732 121.303741,178.083450 121.968697,171.101364 
	C121.973251,166.159988 122.761848,161.064957 121.829544,156.307175 
	C119.415573,143.987991 104.389565,133.143784 92.176926,132.947845 
	C80.383301,132.758652 71.532501,137.383530 64.327957,147.254242 
	C63.292831,150.180832 62.257710,153.107407 61.073692,156.654312 
	C61.038277,157.078003 61.002861,157.501678 60.236027,158.398453 
	C59.165279,169.876984 60.897556,180.377625 70.590088,188.105820 
	C76.843536,193.091919 84.053177,196.629868 91.924118,195.791977 
	C97.792427,195.167282 103.381622,191.920715 109.617874,189.808899 
	C109.777328,189.505264 109.936775,189.201630 109.956093,189.032394 
M42.840553,98.754684 
	C44.977001,95.987556 46.240982,93.109222 43.833298,89.203476 
	C42.900337,88.463181 41.967377,87.722893 40.685696,86.323288 
	C37.500156,83.195656 34.079670,83.088860 30.403166,86.384666 
	C25.181299,91.947006 25.608250,95.948006 32.706612,101.220184 
	C36.354023,102.900963 39.516460,102.371170 42.176922,99.158119 
	C42.176922,99.158119 42.179947,99.072128 42.840553,98.754684 
M172.108658,20.390593 
	C176.034256,28.881878 180.323563,37.229553 183.753555,45.916527 
	C185.926010,51.418587 188.175751,57.190769 184.578781,63.456264 
	C183.789780,64.830627 185.731628,69.170273 187.535080,70.218140 
	C189.140503,71.150955 193.202911,70.203850 194.540649,68.662666 
	C196.268692,66.671829 198.757446,63.575943 195.118179,60.295788 
	C193.546509,58.879227 192.402222,56.349075 192.161209,54.201630 
	C190.816895,42.223545 185.576050,31.723721 179.989639,21.392698 
	C176.435272,14.819541 172.207352,8.634301 164.883102,5.542026 
	C160.252090,3.586831 155.272095,2.563965 151.279282,6.102826 
	C146.709610,10.152961 141.496887,14.426758 139.074097,19.746712 
	C134.439331,29.923660 131.629852,40.926571 127.955833,51.549690 
	C126.898048,54.608185 125.717773,57.674740 124.158043,60.496849 
	C122.061974,64.289413 122.478149,69.397438 125.681038,69.950218 
	C128.276962,70.398232 131.842010,70.155067 133.704819,68.646889 
	C135.900772,66.868980 137.656082,63.670403 134.342117,60.381657 
	C133.196640,59.244888 132.831146,56.539272 133.202362,54.781044 
	C136.141861,40.858349 139.887741,27.217268 148.380798,15.400220 
	C152.479446,9.697450 159.550873,8.298579 165.052948,12.736287 
	C167.538818,14.741270 169.344345,17.589809 172.108658,20.390593 
M86.966095,103.136116 
	C84.573875,96.088478 79.450256,92.184906 72.314255,91.064613 
	C61.851078,89.421982 55.436867,96.330063 54.182419,106.377480 
	C52.903347,116.622147 63.377102,124.874207 71.972748,123.077408 
	C83.283569,120.713043 87.022598,115.947350 86.966095,103.136116 
M47.322628,65.806572 
	C48.038048,66.502243 48.798050,67.158081 49.461235,67.900414 
	C52.471012,71.269402 55.932545,71.929657 60.062862,70.031830 
	C64.519623,67.984009 66.889084,64.347572 66.806091,59.757504 
	C66.735916,55.876144 61.316963,50.690716 57.757107,50.540947 
	C51.137722,50.262470 44.286797,54.567722 47.322628,65.806572 
z"/>
<path fill="#F69420" opacity="1.000000" stroke="none" 
	d="
M186.094254,77.988960 
	C186.094254,77.988960 186.581192,78.055176 187.168472,78.300072 
	C193.597733,79.951836 198.679230,78.801781 202.369308,73.801369 
	C206.280212,68.501724 205.516296,62.343506 204.451035,56.536808 
	C203.813309,53.060604 201.332840,49.953716 199.923935,46.579254 
	C198.408127,42.948795 200.209961,41.911472 203.685623,41.933327 
	C206.793564,41.952866 209.904770,41.448860 213.014542,41.175858 
	C213.014542,41.175858 213.445740,41.033184 213.966141,41.006512 
	C214.683395,40.971703 214.880234,40.963570 215.077072,40.955437 
	C215.077072,40.955437 214.998764,40.967255 215.252258,41.198708 
	C217.715866,41.955177 219.926010,42.480198 222.136139,43.005222 
	C222.813995,43.019733 223.491837,43.034248 224.683350,43.285675 
	C225.455521,43.735600 225.746124,43.886986 226.068817,43.976749 
	C226.068817,43.976749 226.008591,43.996063 226.152100,44.179352 
	C226.564499,44.575581 226.833389,44.788513 227.102280,45.001442 
	C227.102280,45.001442 227.485962,45.061050 227.743988,45.475708 
	C229.685089,46.916801 231.368149,47.943237 233.051208,48.969673 
	C233.051208,48.969673 232.999527,48.994961 233.074646,49.320980 
	C235.814224,54.886211 240.016251,59.884254 240.882248,65.405548 
	C245.077606,92.153526 248.481888,119.028595 251.920715,145.890091 
	C252.777008,152.578812 252.679169,159.387131 253.118362,166.134064 
	C253.202499,167.426468 253.750534,168.688187 254.080048,169.965210 
	C254.731705,172.490570 255.591080,174.983994 255.989334,177.548889 
	C257.057709,184.429276 257.458649,191.447098 258.996185,198.212280 
	C260.915802,206.658844 260.023499,214.251495 255.130600,221.468353 
	C252.852829,224.827988 251.070511,228.523529 249.043488,232.057953 
	C249.023376,232.049103 249.056213,232.026337 248.834015,232.137436 
	C248.331482,232.435867 248.098251,232.670120 247.813416,233.042938 
	C247.714706,233.134567 247.445465,233.142929 247.041641,233.126312 
	C245.093994,234.185913 243.550156,235.262115 241.983246,236.433411 
	C241.960144,236.528503 241.776260,236.595566 241.322784,236.480957 
	C235.950562,236.918533 231.032974,237.937836 226.112869,237.949982 
	C181.451248,238.060242 136.788773,237.878891 92.127556,238.049866 
	C78.421829,238.102341 68.730759,232.086380 62.290169,220.371185 
	C57.615353,211.867874 57.602665,203.256989 61.786896,195.057587 
	C66.128044,196.800568 70.083389,198.388657 74.038734,199.976730 
	C74.038734,199.976730 74.460739,200.049088 74.828903,200.443268 
	C77.512566,201.559769 79.828064,202.282089 82.143555,203.004425 
	C82.143555,203.004425 82.581917,203.031570 83.160248,203.279922 
	C90.592484,203.292572 97.468941,203.295319 104.284134,202.650497 
	C105.950516,202.492828 107.416214,200.214020 108.974182,198.910461 
	C108.974182,198.910461 108.981552,198.980896 109.168976,198.882446 
	C109.640915,198.617661 109.894058,198.412598 110.115837,198.168793 
	C110.538078,197.830307 110.960320,197.491837 111.943634,197.011566 
	C112.995529,196.527039 113.486351,196.184341 113.977158,195.841614 
	C118.814270,190.273148 124.400238,185.389832 127.084007,178.080566 
	C134.164841,158.795914 124.990982,134.456985 104.247650,128.031219 
	C98.896332,126.373535 93.329315,125.412148 87.640900,124.079231 
	C93.321251,117.206268 95.492470,109.505821 93.384521,100.761871 
	C91.227242,91.813316 84.940063,86.992805 76.318344,83.661072 
	C75.375023,83.148392 74.917160,82.949608 74.459297,82.750824 
	C74.459297,82.750824 74.240494,82.715973 74.399719,82.164291 
	C74.694595,77.386818 74.830238,73.161041 74.965881,68.935257 
	C74.999275,68.526894 75.032669,68.118523 75.313782,67.111237 
	C75.722885,65.605560 75.884277,64.698807 76.045670,63.792053 
	C76.045670,63.792053 76.071991,63.477322 76.446960,63.159912 
	C77.536751,60.867447 78.251587,58.892384 78.966415,56.917324 
	C78.966415,56.917324 78.976707,56.984447 79.280136,56.865112 
	C80.397079,55.056530 81.210587,53.367283 82.024101,51.678036 
	C88.550735,44.489002 96.409042,40.489525 106.381073,40.956558 
	C110.597214,41.154015 114.845673,40.661293 119.667374,40.674484 
	C119.350502,45.870117 118.481453,50.880383 117.525818,55.874081 
	C117.048164,58.370102 116.412392,60.835861 115.848137,63.315311 
	C116.411995,74.735245 122.429131,79.589211 132.871399,77.047813 
	C139.358536,75.469009 143.996582,66.650131 141.517151,59.178890 
	C139.568848,53.308128 140.247711,48.123756 143.298386,42.365524 
	C143.756622,41.550438 143.912338,41.262608 144.019562,40.948559 
	C144.019562,40.948559 144.019226,41.014423 144.457642,41.040237 
	C151.834808,41.071625 158.773575,41.080132 165.712326,41.081867 
	C171.622299,41.083344 174.563110,42.952831 175.914001,48.840332 
	C176.657059,52.078793 176.054657,55.625973 175.721497,59.150169 
	C172.586029,61.310944 172.481155,63.707066 174.288269,66.502136 
	C175.062347,67.699409 175.660049,69.050079 176.117905,70.405373 
	C177.742203,75.213562 180.486984,78.460342 186.094254,77.988960 
M224.295319,229.573074 
	C223.157578,229.384735 222.019928,229.032440 220.882065,229.031693 
	C176.464951,229.002762 132.047821,229.001129 87.630707,229.031052 
	C86.480278,229.031830 85.330101,229.423325 84.179802,229.632584 
	C84.216904,230.089005 84.254005,230.545410 84.291100,231.001831 
	C88.194435,231.001831 92.097763,231.001831 96.194557,231.571518 
	C96.796829,232.048904 97.399101,232.526291 98.222092,233.733902 
	C100.074448,234.488327 101.924637,235.894928 103.779465,235.901062 
	C142.232788,236.028336 180.686768,236.042770 219.140198,235.931000 
	C223.397888,235.918625 227.652954,235.005936 231.909241,234.510788 
	C231.874481,234.138260 231.839706,233.765732 231.804947,233.393204 
	C230.532104,233.258331 229.259262,233.123459 227.914795,232.300095 
	C226.944214,231.533508 225.973633,230.766907 224.295319,229.573074 
z"/>
<path fill="#638CC7" opacity="1.000000" stroke="none" 
	d="
M64.972511,146.924911 
	C71.532501,137.383530 80.383301,132.758652 92.176926,132.947845 
	C104.389565,133.143784 119.415573,143.987991 121.829544,156.307175 
	C122.761848,161.064957 121.973251,166.159988 121.595825,171.697662 
	C119.952637,174.574966 118.682320,176.855972 117.091583,179.255646 
	C115.497925,181.268646 114.224701,183.162949 112.818275,185.430359 
	C112.839813,186.228531 112.994545,186.653595 113.149277,187.078659 
	C113.149277,187.078659 113.145538,187.151001 112.867371,186.820923 
	C112.056732,186.597443 111.524269,186.704056 110.856796,186.766235 
	C110.405952,186.746323 110.212234,186.919464 110.173843,187.250793 
	C110.207054,187.260300 110.211723,187.329224 109.843819,187.324677 
	C104.471634,189.008820 99.509857,190.838806 94.454979,192.359299 
	C80.256096,196.630219 61.424152,181.554123 61.929878,166.207443 
	C62.020409,163.460312 61.308727,160.686737 60.967445,157.925369 
	C61.002861,157.501678 61.038277,157.078003 61.445965,156.188263 
	C62.869663,152.789764 63.921085,149.857346 64.972511,146.924911 
z"/>
<path fill="#EE5A91" opacity="1.000000" stroke="none" 
	d="
M10.987178,121.872002 
	C10.987178,121.872002 11.042369,121.456894 11.271387,121.092041 
	C11.714474,120.496490 11.874690,120.233063 11.981055,119.936882 
	C11.981055,119.936882 11.995026,120.000137 12.313828,119.919975 
	C13.746178,118.207970 14.859724,116.576126 15.973272,114.944283 
	C15.973275,114.944283 15.988352,115.007080 16.175129,114.868362 
	C16.571808,114.468414 16.781710,114.207184 16.991610,113.945946 
	C16.991610,113.945946 17.007862,113.993408 17.370441,113.984848 
	C20.830803,112.385155 23.928585,110.794029 27.026365,109.202896 
	C27.468090,109.148529 27.909815,109.094162 28.897518,109.176758 
	C30.295015,109.177132 31.146538,109.040550 31.998060,108.903969 
	C32.439034,108.957855 32.880009,109.011742 33.813545,109.293808 
	C34.539204,109.729012 34.803898,109.880974 35.100197,109.977890 
	C35.514397,110.011055 35.928600,110.044228 36.811295,110.314056 
	C37.517036,110.759979 37.788021,110.907104 38.092731,110.992104 
	C38.092731,110.992104 38.504166,111.052345 38.851784,111.409492 
	C40.156181,112.156746 41.112957,112.546852 42.069733,112.936966 
	C42.069733,112.936966 42.018478,112.996857 42.166008,113.170326 
	C42.585495,113.555023 42.857456,113.766251 43.129417,113.977478 
	C43.458546,114.004631 43.711159,114.157906 43.960728,115.024872 
	C45.340927,117.415283 46.647652,119.218140 47.964859,121.447975 
	C48.056225,126.960014 48.137104,132.045074 48.206116,137.113861 
	C48.194248,137.097565 48.183586,137.128632 47.844269,137.198395 
	C46.348461,139.204514 45.191975,141.140900 44.026878,143.045807 
	C44.018272,143.014359 44.078995,143.038177 43.718754,143.090668 
	C41.878586,144.405655 40.398659,145.668152 38.802738,147.006714 
	C38.686745,147.082764 38.417641,147.150101 37.965973,147.111694 
	C36.519981,147.109619 35.510082,147.045807 34.533726,147.197662 
	C23.702150,148.882339 17.364914,145.754089 11.862023,135.820633 
	C11.539699,135.352295 11.318635,135.115997 11.066846,134.517593 
	C11.043794,133.093399 11.023300,132.057693 11.007317,130.565735 
	C11.003611,127.363655 10.995395,124.617828 10.987178,121.872002 
z"/>
<path fill="#282728" opacity="1.000000" stroke="none" 
	d="
M171.783600,20.223118 
	C169.344345,17.589809 167.538818,14.741270 165.052948,12.736287 
	C159.550873,8.298579 152.479446,9.697450 148.380798,15.400220 
	C139.887741,27.217268 136.141861,40.858349 133.202362,54.781044 
	C132.831146,56.539272 133.196640,59.244888 134.342117,60.381657 
	C137.656082,63.670403 135.900772,66.868980 133.704819,68.646889 
	C131.842010,70.155067 128.276962,70.398232 125.681038,69.950218 
	C122.478149,69.397438 122.061974,64.289413 124.158043,60.496849 
	C125.717773,57.674740 126.898048,54.608185 127.955833,51.549690 
	C131.629852,40.926571 134.439331,29.923660 139.074097,19.746712 
	C141.496887,14.426758 146.709610,10.152961 151.279282,6.102826 
	C155.272095,2.563965 160.252090,3.586831 164.883102,5.542026 
	C172.207352,8.634301 176.435272,14.819541 179.989639,21.392698 
	C185.576050,31.723721 190.816895,42.223545 192.161209,54.201630 
	C192.402222,56.349075 193.546509,58.879227 195.118179,60.295788 
	C198.757446,63.575943 196.268692,66.671829 194.540649,68.662666 
	C193.202911,70.203850 189.140503,71.150955 187.535080,70.218140 
	C185.731628,69.170273 183.789780,64.830627 184.578781,63.456264 
	C188.175751,57.190769 185.926010,51.418587 183.753555,45.916527 
	C180.323563,37.229553 176.034256,28.881878 171.783600,20.223118 
z"/>
<path fill="#7AB24A" opacity="1.000000" stroke="none" 
	d="
M86.973701,103.559952 
	C87.022598,115.947350 83.283569,120.713043 71.972748,123.077408 
	C63.377102,124.874207 52.903347,116.622147 54.182419,106.377480 
	C55.436867,96.330063 61.851078,89.421982 72.314255,91.064613 
	C79.450256,92.184906 84.573875,96.088478 86.973701,103.559952 
z"/>
<path fill="#E4983B" opacity="1.000000" stroke="none" 
	d="
M73.907394,199.650909 
	C70.083389,198.388657 66.128044,196.800568 61.786896,195.057587 
	C57.602665,203.256989 57.615353,211.867874 62.290169,220.371185 
	C68.730759,232.086380 78.421829,238.102341 92.127556,238.049866 
	C136.788773,237.878891 181.451248,238.060242 226.112869,237.949982 
	C231.032974,237.937836 235.950562,236.918533 241.184341,236.713608 
	C241.115860,237.639221 240.732361,238.217575 240.348846,238.795914 
	C238.941452,239.185303 237.534073,239.574692 235.462402,239.653107 
	C233.775040,239.349899 232.751938,239.357651 231.306747,239.389328 
	C184.646912,239.407471 138.409195,239.401688 91.708542,239.273788 
	C87.396713,239.072571 83.547813,238.993439 79.698906,238.914322 
	C59.104309,230.799286 54.545322,219.382050 59.492676,188.254135 
	C64.263512,191.951981 69.019791,195.638535 73.907394,199.650909 
z"/>
<path fill="#E4983B" opacity="1.000000" stroke="none" 
	d="
M249.063614,232.066818 
	C251.070511,228.523529 252.852829,224.827988 255.130600,221.468353 
	C260.023499,214.251495 260.915802,206.658844 258.996185,198.212280 
	C257.458649,191.447098 257.057709,184.429276 255.989334,177.548889 
	C255.591080,174.983994 254.731705,172.490570 254.080048,169.965210 
	C253.750534,168.688187 253.202499,167.426468 253.118362,166.134064 
	C252.679169,159.387131 252.777008,152.578812 251.920715,145.890091 
	C248.481888,119.028595 245.077606,92.153526 240.882248,65.405548 
	C240.016251,59.884254 235.814224,54.886211 233.086731,49.294868 
	C236.010529,52.380650 240.085083,55.371750 241.724640,59.363098 
	C244.078079,65.092354 244.959686,71.503456 245.927917,77.708008 
	C247.807755,89.754150 249.426010,101.844757 250.932831,113.944313 
	C252.121933,123.492699 252.824951,133.101959 254.033585,142.647491 
	C255.153564,151.492722 256.657684,160.289291 257.653137,169.820038 
	C258.467224,177.685837 259.620789,184.838913 260.774353,191.991974 
	C261.178223,198.039703 261.971039,204.096283 261.833740,210.131699 
	C261.756714,213.517258 260.140717,216.867813 258.726288,220.731369 
	C255.177536,224.841354 252.120575,228.454086 249.063614,232.066818 
z"/>
<path fill="#D54581" opacity="1.000000" stroke="none" 
	d="
M47.182098,65.443451 
	C44.286797,54.567722 51.137722,50.262470 57.757107,50.540947 
	C61.316963,50.690716 66.735916,55.876144 66.806091,59.757504 
	C66.889084,64.347572 64.519623,67.984009 60.062862,70.031830 
	C55.932545,71.929657 52.471012,71.269402 49.461235,67.900414 
	C48.798050,67.158081 48.038048,66.502243 47.182098,65.443451 
z"/>
<path fill="#7691B7" opacity="1.000000" stroke="none" 
	d="
M60.601738,158.161911 
	C61.308727,160.686737 62.020409,163.460312 61.929878,166.207443 
	C61.424152,181.554123 80.256096,196.630219 94.454979,192.359299 
	C99.509857,190.838806 104.471634,189.008820 109.746513,187.630249 
	C110.041290,188.351364 110.065460,188.762344 110.089638,189.173340 
	C110.089638,189.173340 109.956093,189.032394 109.902740,189.176605 
	C109.494415,189.345322 109.242996,189.518982 109.095123,189.841782 
	C103.381622,191.920715 97.792427,195.167282 91.924118,195.791977 
	C84.053177,196.629868 76.843536,193.091919 70.590088,188.105820 
	C60.897556,180.377625 59.165279,169.876984 60.601738,158.161911 
z"/>
<path fill="#FEF8D8" opacity="1.000000" stroke="none" 
	d="
M92.171463,239.395889 
	C138.409195,239.401688 184.646912,239.407471 231.354218,239.636673 
	C231.900620,240.187302 231.977448,240.514526 232.054276,240.841751 
	C202.951569,240.894577 173.848892,240.960983 144.746170,240.995453 
	C125.452919,241.018311 106.159622,240.995438 86.674210,240.678680 
	C88.378532,240.041489 90.274994,239.718689 92.171463,239.395889 
z"/>
<path fill="#E4983B" opacity="1.000000" stroke="none" 
	d="
M212.550079,41.100510 
	C209.904770,41.448860 206.793564,41.952866 203.685623,41.933327 
	C200.209961,41.911472 198.408127,42.948795 199.923935,46.579254 
	C201.332840,49.953716 203.813309,53.060604 204.451035,56.536808 
	C205.516296,62.343506 206.280212,68.501724 202.369308,73.801369 
	C198.679230,78.801781 193.597733,79.951836 187.403442,78.371933 
	C193.474335,77.813957 199.965576,76.809227 201.728806,69.469902 
	C202.676208,65.526421 202.255585,60.905342 201.206131,56.917992 
	C199.845062,51.746712 197.242477,46.902195 194.804352,41.025154 
	C201.511978,41.025154 206.798813,41.025154 212.550079,41.100510 
z"/>
<path fill="#695985" opacity="1.000000" stroke="none" 
	d="
M31.953365,100.911697 
	C25.608250,95.948006 25.181299,91.947006 30.826111,86.448158 
	C31.502151,86.997284 31.755249,87.482918 31.706217,88.131546 
	C27.401760,90.899628 29.567888,94.083107 31.393543,96.211090 
	C33.502869,98.669731 36.626144,98.679726 39.255707,96.173172 
	C42.573784,93.010300 40.974087,90.006325 39.334343,87.001495 
	C40.127731,86.993233 40.581074,86.987915 41.034416,86.982605 
	C41.967377,87.722893 42.900337,88.463181 43.804665,89.900085 
	C43.244003,93.421844 42.711975,96.246986 42.179947,99.072128 
	C42.179947,99.072128 42.176922,99.158119 41.871780,98.774139 
	C38.362213,99.230667 35.157787,100.071182 31.953365,100.911697 
z"/>
<path fill="#DEA75F" opacity="1.000000" stroke="none" 
	d="
M176.058884,59.033958 
	C176.054657,55.625973 176.657059,52.078793 175.914001,48.840332 
	C174.563110,42.952831 171.622299,41.083344 165.712326,41.081867 
	C158.773575,41.080132 151.834808,41.071625 144.424896,41.036751 
	C145.616898,40.670406 147.276108,40.067154 148.943924,40.042339 
	C156.231140,39.933887 163.529388,40.203915 170.806229,39.907974 
	C174.783432,39.746223 176.092941,41.764656 177.043854,45.039314 
	C178.646973,50.559887 179.824112,56.033783 177.251129,61.652786 
	C176.474075,60.752941 176.266479,59.893452 176.058884,59.033958 
z"/>
<path fill="#D27196" opacity="1.000000" stroke="none" 
	d="
M11.991451,136.026321 
	C17.364914,145.754089 23.702150,148.882339 34.533726,147.197662 
	C35.510082,147.045807 36.519981,147.109619 37.627525,147.352173 
	C32.798145,148.090408 27.855543,148.549744 22.912941,149.009064 
	C15.505483,147.203705 11.847875,141.942245 10.000168,135.007629 
	C9.713379,133.931290 9.396277,132.863037 9.446645,131.404205 
	C10.200999,131.018890 10.601903,131.020432 11.002806,131.021973 
	C11.023300,132.057693 11.043794,133.093399 11.189817,134.728653 
	C11.506459,135.594070 11.731828,135.826782 11.991451,136.026321 
z"/>
<path fill="#E4983B" opacity="1.000000" stroke="none" 
	d="
M175.721497,59.150169 
	C176.266479,59.893452 176.474075,60.752941 176.904785,61.863525 
	C176.879440,68.984306 179.550766,74.184738 185.959229,77.657394 
	C180.486984,78.460342 177.742203,75.213562 176.117905,70.405373 
	C175.660049,69.050079 175.062347,67.699409 174.288269,66.502136 
	C172.481155,63.707066 172.586029,61.310944 175.721497,59.150169 
z"/>
<path fill="#FCE8C4" opacity="1.000000" stroke="none" 
	d="
M116.199257,63.132614 
	C116.412392,60.835861 117.048164,58.370102 117.525818,55.874081 
	C118.481453,50.880383 119.350502,45.870117 120.053345,40.538494 
	C124.665985,39.073044 123.275452,43.047478 122.862541,44.676617 
	C121.593483,49.683716 119.672050,54.526680 117.973854,59.422916 
	C117.558922,60.619244 117.027977,61.775330 116.199257,63.132614 
z"/>
<path fill="#E4983B" opacity="1.000000" stroke="none" 
	d="
M108.582825,198.951202 
	C107.416214,200.214020 105.950516,202.492828 104.284134,202.650497 
	C97.468941,203.295319 90.592484,203.292572 83.368752,203.348846 
	C88.033356,202.778656 93.108429,202.656921 98.088211,201.904465 
	C101.524216,201.385284 104.828384,199.993652 108.582825,198.951202 
z"/>
<path fill="#FBE8C7" opacity="1.000000" stroke="none" 
	d="
M249.043488,232.057953 
	C252.120575,228.454086 255.177536,224.841354 258.516968,221.043243 
	C258.942078,229.186234 252.380081,232.214142 246.419281,236.027313 
	C246.029877,236.029449 245.973633,235.970047 245.906708,235.641586 
	C246.375000,234.589722 246.910248,233.866333 247.445465,233.142944 
	C247.445465,233.142929 247.714706,233.134567 248.078766,232.998779 
	C248.647278,232.584091 248.851746,232.305206 249.056213,232.026337 
	C249.056213,232.026337 249.023376,232.049103 249.043488,232.057953 
z"/>
<path fill="#F6DAAD" opacity="1.000000" stroke="none" 
	d="
M260.829529,191.559479 
	C259.620789,184.838913 258.467224,177.685837 257.572449,170.232239 
	C258.849091,176.996811 259.866943,184.061905 260.829529,191.559479 
z"/>
<path fill="#D27196" opacity="1.000000" stroke="none" 
	d="
M48.217987,137.130142 
	C48.137104,132.045074 48.056225,126.960014 47.990456,121.156273 
	C48.018383,120.242935 48.031204,120.048279 48.044029,119.853615 
	C51.940639,123.645226 50.829319,128.538452 50.617615,133.729614 
	C49.582638,135.245392 48.900311,136.187759 48.217987,137.130142 
z"/>
<path fill="#665382" opacity="1.000000" stroke="none" 
	d="
M32.008347,87.968552 
	C31.755249,87.482918 31.502151,86.997284 31.127457,86.266357 
	C34.079670,83.088860 37.500156,83.195656 40.860054,86.652946 
	C40.581074,86.987915 40.127731,86.993233 38.975021,87.151230 
	C36.186546,87.525452 34.097446,87.747002 32.008347,87.968552 
z"/>
<path fill="#DBE8F3" opacity="1.000000" stroke="none" 
	d="
M117.412003,179.136963 
	C118.682320,176.855972 119.952637,174.574966 121.499733,172.119019 
	C121.303741,178.083450 117.861404,182.625732 113.462128,186.950134 
	C112.994545,186.653595 112.839813,186.228531 113.088593,185.227936 
	C114.798737,182.813934 116.105370,180.975449 117.412003,179.136963 
z"/>
<path fill="#F8CBE0" opacity="1.000000" stroke="none" 
	d="
M23.075577,149.389328 
	C27.855543,148.549744 32.798145,148.090408 38.079193,147.390594 
	C38.417641,147.150101 38.686745,147.082764 39.274376,146.934372 
	C40.774399,146.827682 41.686794,146.869400 42.599190,146.911118 
	C36.616005,151.050568 30.056002,151.283096 23.075577,149.389328 
z"/>
<path fill="#DB9A48" opacity="1.000000" stroke="none" 
	d="
M74.603928,69.158569 
	C74.830238,73.161041 74.694595,77.386818 74.383133,82.054764 
	C74.141945,80.267342 74.022102,78.037651 74.026863,75.808220 
	C74.031441,73.665962 74.165070,71.523979 74.603928,69.158569 
z"/>
<path fill="#D4648F" opacity="1.000000" stroke="none" 
	d="
M26.641493,109.118912 
	C23.928585,110.794029 20.830803,112.385155 17.346767,113.978127 
	C20.059216,112.331619 23.157919,110.683266 26.641493,109.118912 
z"/>
<path fill="#F8CBE0" opacity="1.000000" stroke="none" 
	d="
M48.206116,137.113861 
	C48.900311,136.187759 49.582638,135.245392 50.532806,134.178024 
	C50.639652,139.455170 47.067581,142.770966 43.108166,145.930267 
	C43.200275,144.878250 43.639637,143.958206 44.078995,143.038177 
	C44.078995,143.038177 44.018272,143.014359 44.329464,142.895782 
	C45.821632,140.894333 47.002609,139.011490 48.183586,137.128632 
	C48.183586,137.128632 48.194248,137.097565 48.206116,137.113861 
z"/>
<path fill="#EBE6F1" opacity="1.000000" stroke="none" 
	d="
M32.329987,101.065941 
	C35.157787,100.071182 38.362213,99.230667 41.828789,98.775772 
	C39.516460,102.371170 36.354023,102.900963 32.329987,101.065941 
z"/>
<path fill="#7691B7" opacity="1.000000" stroke="none" 
	d="
M64.650238,147.089569 
	C63.921085,149.857346 62.869663,152.789764 61.520412,155.878098 
	C62.257710,153.107407 63.292831,150.180832 64.650238,147.089569 
z"/>
<path fill="#D4648F" opacity="1.000000" stroke="none" 
	d="
M11.007317,130.565735 
	C10.601903,131.020432 10.200999,131.018890 9.499454,131.016602 
	C9.563808,128.100159 9.928803,125.184471 10.640488,122.070389 
	C10.995395,124.617828 11.003611,127.363655 11.007317,130.565735 
z"/>
<path fill="#D27196" opacity="1.000000" stroke="none" 
	d="
M43.718758,143.090668 
	C43.639637,143.958206 43.200275,144.878250 42.846565,146.182434 
	C42.932217,146.566605 42.818417,146.957458 42.708801,146.934296 
	C41.686794,146.869400 40.774399,146.827682 39.390366,146.858307 
	C40.398659,145.668152 41.878586,144.405655 43.718758,143.090668 
z"/>
<path fill="#D4648F" opacity="1.000000" stroke="none" 
	d="
M48.029282,119.516266 
	C48.031204,120.048279 48.018383,120.242935 47.979973,120.729294 
	C46.647652,119.218140 45.340927,117.415283 44.021690,115.244919 
	C45.344296,116.311256 46.679417,117.745094 48.029282,119.516266 
z"/>
<path fill="#E8C288" opacity="1.000000" stroke="none" 
	d="
M91.708542,239.273788 
	C90.274994,239.718689 88.378532,240.041489 86.205582,240.609360 
	C83.965698,240.453476 82.002296,240.052536 79.868896,239.282959 
	C83.547813,238.993439 87.396713,239.072571 91.708542,239.273788 
z"/>
<path fill="#EBE6F1" opacity="1.000000" stroke="none" 
	d="
M42.510250,98.913406 
	C42.711975,96.246986 43.244003,93.421844 43.880089,90.189423 
	C46.240982,93.109222 44.977001,95.987556 42.510250,98.913406 
z"/>
<path fill="#E4983B" opacity="1.000000" stroke="none" 
	d="
M81.953911,202.685364 
	C79.828064,202.282089 77.512566,201.559769 75.028175,200.521515 
	C77.160942,200.925842 79.462608,201.646072 81.953911,202.685364 
z"/>
<path fill="#FBE8C7" opacity="1.000000" stroke="none" 
	d="
M240.625366,238.605927 
	C240.732361,238.217575 241.115860,237.639221 241.637817,236.828217 
	C241.776260,236.595566 241.960144,236.528503 242.391830,236.395767 
	C243.873550,236.165375 244.923599,236.067719 245.973633,235.970047 
	C245.973633,235.970047 246.029877,236.029449 246.058044,236.059113 
	C244.358109,236.864487 242.629990,237.640198 240.625366,238.605927 
z"/>
<path fill="#D4648F" opacity="1.000000" stroke="none" 
	d="
M15.654703,115.051941 
	C14.859724,116.576126 13.746178,118.207970 12.285331,119.904465 
	C13.070733,118.365944 14.203434,116.762764 15.654703,115.051941 
z"/>
<path fill="#DB9A48" opacity="1.000000" stroke="none" 
	d="
M78.626297,57.051025 
	C78.251587,58.892384 77.536751,60.867447 76.512421,63.016212 
	C76.897339,61.188187 77.591751,59.186455 78.626297,57.051025 
z"/>
<path fill="#E4983B" opacity="1.000000" stroke="none" 
	d="
M232.933624,48.653465 
	C231.368149,47.943237 229.685089,46.916801 227.925140,45.545517 
	C229.504196,46.246197 231.160110,47.291729 232.933624,48.653465 
z"/>
<path fill="#E4983B" opacity="1.000000" stroke="none" 
	d="
M221.937515,42.671486 
	C219.926010,42.480198 217.715866,41.955177 215.246674,41.159504 
	C217.238052,41.371819 219.488464,41.854782 221.937515,42.671486 
z"/>
<path fill="#DB9A48" opacity="1.000000" stroke="none" 
	d="
M81.709763,51.859047 
	C81.210587,53.367283 80.397079,55.056530 79.246185,56.865498 
	C79.737679,55.336830 80.566559,53.688446 81.709763,51.859047 
z"/>
<path fill="#D4648F" opacity="1.000000" stroke="none" 
	d="
M31.868443,108.608444 
	C31.146538,109.040550 30.295015,109.177132 29.228161,109.123634 
	C29.921494,108.726669 30.830160,108.519791 31.868443,108.608444 
z"/>
<path fill="#E8C288" opacity="1.000000" stroke="none" 
	d="
M232.428040,240.930252 
	C231.977448,240.514526 231.900620,240.187302 231.776306,239.612732 
	C232.751938,239.357651 233.775040,239.349899 235.089554,239.612076 
	C234.521255,240.260925 233.661530,240.639847 232.428040,240.930252 
z"/>
<path fill="#DBE8F3" opacity="1.000000" stroke="none" 
	d="
M110.407150,189.102478 
	C110.065460,188.762344 110.041290,188.351364 110.114418,187.634796 
	C110.211723,187.329224 110.207054,187.260300 110.409431,187.187546 
	C110.611809,187.114792 110.991806,186.810669 110.991806,186.810669 
	C111.524269,186.704056 112.056732,186.597443 112.831161,186.821854 
	C112.290306,187.779114 111.507492,188.405350 110.407150,189.102478 
z"/>
<path fill="#D4648F" opacity="1.000000" stroke="none" 
	d="
M41.958458,112.613686 
	C41.112957,112.546852 40.156181,112.156746 39.049156,111.474846 
	C39.881668,111.552170 40.864429,111.921288 41.958458,112.613686 
z"/>
<path fill="#DB9A48" opacity="1.000000" stroke="none" 
	d="
M75.694916,63.954414 
	C75.884277,64.698807 75.722885,65.605560 75.376755,66.810303 
	C75.242737,66.111115 75.293449,65.113945 75.694916,63.954414 
z"/>
<path fill="#E4983B" opacity="1.000000" stroke="none" 
	d="
M113.664032,195.910919 
	C113.486351,196.184341 112.995529,196.527039 112.205940,196.932831 
	C112.388412,196.657364 112.869652,196.318787 113.664032,195.910919 
z"/>
<path fill="#DB9A48" opacity="1.000000" stroke="none" 
	d="
M74.617249,82.970810 
	C74.917160,82.949608 75.375023,83.148392 75.949997,83.585823 
	C75.636475,83.613243 75.205841,83.402016 74.617249,82.970810 
z"/>
<path fill="#E4983B" opacity="1.000000" stroke="none" 
	d="
M214.992859,40.705536 
	C214.880234,40.963570 214.683395,40.971703 214.190811,40.973381 
	C214.232941,40.796494 214.570801,40.626064 214.992859,40.705536 
z"/>
<path fill="#DEA75F" opacity="1.000000" stroke="none" 
	d="
M143.744370,41.040520 
	C143.912338,41.262608 143.756622,41.550438 143.386749,41.997719 
	C143.303772,41.833088 143.386475,41.482788 143.744370,41.040520 
z"/>
<path fill="#D4648F" opacity="1.000000" stroke="none" 
	d="
M11.710926,120.009109 
	C11.874690,120.233063 11.714474,120.496490 11.336294,120.892975 
	C11.261721,120.732956 11.351258,120.407150 11.710926,120.009109 
z"/>
<path fill="#E4983B" opacity="1.000000" stroke="none" 
	d="
M225.980377,43.697701 
	C225.746124,43.886986 225.455521,43.735600 225.015930,43.351425 
	C225.187210,43.259727 225.539566,43.339191 225.980377,43.697701 
z"/>
<path fill="#E4983B" opacity="1.000000" stroke="none" 
	d="
M227.018524,44.737022 
	C226.833389,44.788513 226.564499,44.575581 226.152054,44.147728 
	C226.317245,44.112740 226.626007,44.292671 227.018524,44.737022 
z"/>
<path fill="#D4648F" opacity="1.000000" stroke="none" 
	d="
M16.744362,114.037170 
	C16.781710,114.207184 16.571808,114.468414 16.144047,114.859528 
	C16.116495,114.702400 16.306803,114.415398 16.744362,114.037170 
z"/>
<path fill="#D4648F" opacity="1.000000" stroke="none" 
	d="
M43.042702,113.711739 
	C42.857456,113.766251 42.585495,113.555023 42.164146,113.131058 
	C42.328499,113.094208 42.642242,113.270103 43.042702,113.711739 
z"/>
<path fill="#D4648F" opacity="1.000000" stroke="none" 
	d="
M37.999191,110.734955 
	C37.788021,110.907104 37.517036,110.759979 37.114326,110.385925 
	C37.267792,110.306686 37.586720,110.392250 37.999191,110.734955 
z"/>
<path fill="#E4983B" opacity="1.000000" stroke="none" 
	d="
M109.827881,198.117676 
	C109.894058,198.412598 109.640915,198.617661 109.133698,198.885498 
	C109.120644,198.680176 109.330284,198.373367 109.827881,198.117676 
z"/>
<path fill="#DBE8F3" opacity="1.000000" stroke="none" 
	d="
M109.356499,189.825348 
	C109.242996,189.518982 109.494415,189.345322 109.972809,189.109406 
	C109.936775,189.201630 109.777328,189.505264 109.356499,189.825348 
z"/>
<path fill="#D4648F" opacity="1.000000" stroke="none" 
	d="
M35.009148,109.722565 
	C34.803898,109.880974 34.539204,109.729012 34.140068,109.361931 
	C34.288715,109.290329 34.603409,109.378784 35.009148,109.722565 
z"/>
<path fill="#F79324" opacity="1.000000" stroke="none" 
	d="
M227.986404,232.988586 
	C229.259262,233.123459 230.532104,233.258331 231.804947,233.393204 
	C231.839706,233.765732 231.874481,234.138260 231.909241,234.510788 
	C227.652954,235.005936 223.397888,235.918625 219.140198,235.931000 
	C180.686768,236.042770 142.232788,236.028336 103.779465,235.901062 
	C101.924637,235.894928 100.074448,234.488327 98.580238,233.367920 
	C141.954391,232.997498 184.970398,232.993042 227.986404,232.988586 
z"/>
<path fill="#F09624" opacity="1.000000" stroke="none" 
	d="
M96.001091,231.001831 
	C92.097763,231.001831 88.194435,231.001831 84.291100,231.001831 
	C84.254005,230.545410 84.216904,230.089005 84.179802,229.632584 
	C85.330101,229.423325 86.480278,229.031830 87.630707,229.031052 
	C132.047821,229.001129 176.464951,229.002762 220.882065,229.031693 
	C222.019928,229.032440 223.157578,229.384735 224.295670,230.001251 
	C222.158234,230.619629 220.020584,230.973923 217.882645,230.975693 
	C177.255463,231.009232 136.628281,231.001205 96.001091,231.001831 
z"/>
<path fill="#F99418" opacity="1.000000" stroke="none" 
	d="
M96.097824,231.286682 
	C136.628281,231.001205 177.255463,231.009232 217.882645,230.975693 
	C220.020584,230.973923 222.158234,230.619629 224.649536,230.214874 
	C225.973633,230.766907 226.944214,231.533508 227.950592,232.644348 
	C184.970398,232.993042 141.954391,232.997498 98.469879,233.002808 
	C97.399101,232.526291 96.796829,232.048904 96.097824,231.286682 
z"/>
<path fill="#E4983B" opacity="1.000000" stroke="none" 
	d="
M245.906708,235.641586 
	C244.923599,236.067719 243.873550,236.165375 242.414917,236.300659 
	C243.550156,235.262115 245.093994,234.185913 247.041656,233.126328 
	C246.910248,233.866333 246.375000,234.589722 245.906708,235.641586 
z"/>
<path fill="#E4983B" opacity="1.000000" stroke="none" 
	d="
M248.834015,232.137436 
	C248.851746,232.305206 248.647278,232.584091 248.177475,232.907135 
	C248.098251,232.670120 248.331482,232.435867 248.834015,232.137436 
z"/>
<path fill="#7691B7" opacity="1.000000" stroke="none" 
	d="
M117.091576,179.255646 
	C116.105370,180.975449 114.798737,182.813934 113.221786,184.854843 
	C114.224701,183.162949 115.497925,181.268646 117.091576,179.255646 
z"/>
<path fill="#7691B7" opacity="1.000000" stroke="none" 
	d="
M110.856796,186.766235 
	C110.991806,186.810669 110.611809,187.114792 110.376221,187.178040 
	C110.212234,186.919464 110.405952,186.746323 110.856796,186.766235 
z"/>
<path fill="#D27196" opacity="1.000000" stroke="none" 
	d="
M47.844265,137.198395 
	C47.002609,139.011490 45.821632,140.894333 44.338074,142.927231 
	C45.191975,141.140900 46.348461,139.204514 47.844265,137.198395 
z"/>
<path fill="#D4648F" opacity="1.000000" stroke="none" 
	d="
M11.862023,135.820633 
	C11.731828,135.826782 11.506459,135.594070 11.192375,135.117126 
	C11.318635,135.115997 11.539699,135.352295 11.862023,135.820633 
z"/>
<path fill="#6B5193" opacity="1.000000" stroke="none" 
	d="
M31.706217,88.131554 
	C34.097446,87.747002 36.186546,87.525452 38.634972,87.154175 
	C40.974087,90.006325 42.573784,93.010300 39.255707,96.173172 
	C36.626144,98.679726 33.502869,98.669731 31.393543,96.211090 
	C29.567888,94.083107 27.401760,90.899628 31.706217,88.131554 
z"/>
</svg>